<mxfile host="app.diagrams.net" modified="2023-04-18T02:06:45.184Z" agent="Mozilla/5.0 (Macintosh; Intel Mac OS X 10_15_7) AppleWebKit/537.36 (KHTML, like Gecko) Chrome/112.0.0.0 Safari/537.36" version="21.1.5" etag="nlcJOSQtgLpeONTaaE65" type="github">
  <diagram name="第 1 页" id="9VUj5cMb8SGM_6NRE36Y">
    <mxGraphModel>
      <root>
        <mxCell id="0" />
        <mxCell id="1" parent="0" />
      </root>
    </mxGraphModel>
  </diagram>
</mxfile>
